:version 1.10
:name ASF
:units
  mass 1
  length 1
  angle deg
:documentation
  ASF file generated by Kaydara
:root
  axis xyz
  order  tx ty tz rx ry rz
  position 0 0 0
  orientation 0 0 0
:bonedata
  begin
    id 1
    name RightUpLegDummy
    direction -0.65628 -0.754516 0.00165102
    length 4.76918
    axis 0 0 0 xyz
  end
  begin
    id 2
    name RightUpLeg
    direction -0.145584 -0.923362 0.355256
    length 17.9961
    axis -24.7611 -13.1006 1.78531 xyz
    dof rx ry rz
  end
  begin
    id 3
    name RightLeg
    direction 0.263379 0.172355 -0.949171
    length 13.3386
    axis 89.6202 -21.1929 12.3855 xyz
    dof rx ry rz
  end
  begin
    id 4
    name RightFoot
    direction 0.224283 -0.968777 -0.105675
    length 5.86697
    axis 56.995 -39.6905 17.3365 xyz
    dof rx ry rz
  end
  begin
    id 5
    name RightToes
    direction -0.0806345 -0.9037 0.420506
    length 4.75197
    axis 146.825 -39.7828 17.6019 xyz
    dof rx ry rz
  end
  begin
    id 6
    name SpineDummy
    direction -3.39852e-014 1 9.33296e-014
    length 8.13779
    axis 0 0 0 xyz
  end
  begin
    id 7
    name Spine
    direction -0.156609 0.733703 0.661176
    length 7.14978
    axis 41.2365 5.68757 17.0844 xyz
    dof rx ry rz
  end
  begin
    id 8
    name Spine1
    direction 0 0 0
    length 0
    axis 42.8809 47.8308 -3.36039 xyz
    dof rx ry rz
  end
  begin
    id 9
    name HEadDummy
    direction 0.546431 0.701947 0.456819
    length 3.55512
    axis 42.8809 47.8308 -3.36039 xyz
  end
  begin
    id 10
    name HEad
    direction 0.23444 0.828559 0.508457
    length 7.35827
    axis 51.1864 49.2662 27.4903 xyz
    dof rx ry rz
  end
  begin
    id 11
    name LeftShoulder1Dummy
    direction 0.431183 0.475873 -0.766568
    length 2.49352
    axis 42.8809 47.8308 -3.36039 xyz
  end
  begin
    id 12
    name LeftShoulder1
    direction 0.268187 -0.383402 -0.883786
    length 4.48604
    axis -119.517 0.106469 35.1736 xyz
    dof rx ry rz
  end
  begin
    id 13
    name LeftArm
    direction 0.380567 -0.703221 -0.600541
    length 10.1142
    axis -5.41825 36.2925 7.8293 xyz
    dof rx ry rz
  end
  begin
    id 14
    name LeftForeArm
    direction 0.541071 -0.732356 -0.413396
    length 9.39839
    axis 4.65387 33.7604 7.81644 xyz
    dof rx ry rz
  end
  begin
    id 15
    name LeftHand
    direction 0.847511 -0.389379 -0.360707
    length 3.66142
    axis 7.65593 21.1436 -24.6758 xyz
    dof rx ry rz
  end
  begin
    id 16
    name RightShoulderDummy
    direction -0.692546 0.541855 0.476208
    length 2.49352
    axis 42.8809 47.8308 -3.36039 xyz
  end
  begin
    id 17
    name RightShoulder
    direction -0.870808 -0.316653 0.376065
    length 4.48602
    axis 141.571 51.133 -100.254 xyz
    dof rx ry rz
  end
  begin
    id 18
    name RightArm
    direction 0.366897 -0.87275 0.322015
    length 10.1142
    axis 92.3258 71.2036 138.917 xyz
    dof rx ry rz
  end
  begin
    id 19
    name RightForeArm
    direction 0.702487 -0.694568 0.155197
    length 9.39835
    axis 153.863 41.5092 -176.604 xyz
    dof rx ry rz
  end
  begin
    id 20
    name RightHand
    direction 0.79502 -0.601276 0.0800636
    length 3.66142
    axis 154.247 4.59222 142.9 xyz
    dof rx ry rz
  end
  begin
    id 21
    name LeftUpLegDummy
    direction 0.65628 -0.754516 0.00165102
    length 4.76919
    axis 0 0 0 xyz
  end
  begin
    id 22
    name LeftUpLeg
    direction -0.1277 -0.689368 0.713067
    length 17.9961
    axis -48.3385 -17.8675 0.791927 xyz
    dof rx ry rz
  end
  begin
    id 23
    name LeftLeg
    direction 0.109849 -0.991246 -0.0732378
    length 13.3386
    axis -2.05791 -7.30784 1.72042 xyz
    dof rx ry rz
  end
  begin
    id 24
    name LeftFoot
    direction 0.0448355 -0.272614 0.961078
    length 5.86697
    axis -18.7733 -7.89606 10.2113 xyz
    dof rx ry rz
  end
  begin
    id 25
    name LeftToes
    direction -0.18506 0.293668 0.937823
    length 4.75197
    axis 71.2267 -7.89606 10.2113 xyz
    dof rx ry rz
  end
:hierarchy
  begin
    root RightUpLegDummy SpineDummy LeftUpLegDummy
    RightUpLegDummy RightUpLeg
    RightUpLeg RightLeg
    RightLeg RightFoot
    RightFoot RightToes
    SpineDummy Spine
    Spine Spine1
    Spine1 HEadDummy LeftShoulder1Dummy RightShoulderDummy
    HEadDummy HEad
    LeftShoulder1Dummy LeftShoulder1
    LeftShoulder1 LeftArm
    LeftArm LeftForeArm
    LeftForeArm LeftHand
    RightShoulderDummy RightShoulder
    RightShoulder RightArm
    RightArm RightForeArm
    RightForeArm RightHand
    LeftUpLegDummy LeftUpLeg
    LeftUpLeg LeftLeg
    LeftLeg LeftFoot
    LeftFoot LeftToes
  end

:SAMPLES-PER-SECOND 30
:FULLY-SPECIFIED
:DEGREES
23
root  0.780225 39.8651 0.933619 -174.882 -25.3469 175.052
RightUpLeg  -1.5172 12.7086 7.709
RightLeg  -62.4332 -16.5485 2.42969
RightFoot  19.3646 2.14389 -11.5552
RightToes  -1.27222e-014 -6.36111e-015 6.36111e-015
Spine  -36.3041 -23.1902 -18.447
Spine1  5.88574 -14.6005 45.5964
HEad  0.504602 -36.7428 -8.09487
LeftShoulder1  6.36111e-015 -1.33558e-015 6.49777e-015
LeftArm  30.0194 -11.0712 -47.9205
LeftForeArm  -25.7198 -44.535 14.6808
LeftHand  -0.629153 -0.273335 -6.50507
RightShoulder  -4.77083e-015 -6.36111e-015 -3.18055e-015
RightArm  58.6195 -45.3689 -9.06723
RightForeArm  -11.8526 -8.54957 -7.89928
RightHand  0.408548 0.693332 -4.23188
LeftUpLeg  36.2226 22.4917 12.2431
LeftLeg  -11.7599 -9.4902 -0.86849
LeftFoot  9.76737 2.72839 -7.02399
LeftToes  1.27222e-014 1.09105e-011 6.96064e-012
24
root  0.578344 40.455 0.389976 -176.085 -26.2166 175.588
RightUpLeg  -1.02498 14.4853 9.39695
RightLeg  -68.568 -14.6856 0.840698
RightFoot  18.8391 1.82843 -10.9311
RightToes  -1.27222e-014 -6.36111e-015 6.36111e-015
Spine  -35.9148 -23.9483 -17.4517
Spine1  4.66099 -15.7382 47.5106
HEad  1.47207 -35.33 -9.64888
LeftShoulder1  6.36111e-015 -1.33558e-015 6.49777e-015
LeftArm  29.3933 -13.6836 -48.2831
LeftForeArm  -29.7808 -46.2936 17.9441
LeftHand  -0.550663 -0.0881592 -6.28298
RightShoulder  -4.77083e-015 -6.36111e-015 -3.18055e-015
RightArm  62.7487 -46.1217 -14.2335
RightForeArm  -12.4451 -10.3628 -7.39131
RightHand  0.381414 0.624968 -3.89933
LeftUpLeg  38.6595 23.2976 14.0655
LeftLeg  -13.2707 -7.28294 -1.09408
LeftFoot  13.9822 3.21768 -7.49115
LeftToes  1.27222e-014 1.09105e-011 6.96064e-012
25
root  0.34246 40.6917 -0.131713 -177.168 -26.609 175.159
RightUpLeg  -0.58963 16.4739 9.31072
RightLeg  -76.3249 -13.8849 1.06585
RightFoot  18.9498 1.42307 -10.3301
RightToes  -1.27222e-014 -6.36111e-015 6.36111e-015
Spine  -35.3055 -24.8897 -17.2012
Spine1  3.85608 -16.603 48.9712
HEad  2.05199 -33.8731 -10.9759
LeftShoulder1  6.36111e-015 -1.33558e-015 6.49777e-015
LeftArm  28.4988 -17.0366 -48.7563
LeftForeArm  -33.5469 -47.3792 20.7839
LeftHand  -0.483395 -0.00395798 -5.7985
RightShoulder  -4.77083e-015 -6.36111e-015 -3.18055e-015
RightArm  68.2027 -45.9044 -21.4764
RightForeArm  -13.6775 -10.8362 -7.48582
RightHand  0.357047 0.827714 -4.04464
LeftUpLeg  41.879 25.3604 15.9268
LeftLeg  -14.5001 -5.83137 -1.31628
LeftFoot  13.9493 3.73321 -8.68213
LeftToes  1.27222e-014 1.09105e-011 6.96064e-012
26
root  0.0703855 40.6117 -0.653967 -177.697 -26.8913 174.474
RightUpLeg  -0.654166 18.3919 8.42368
RightLeg  -84.9917 -13.1652 2.29372
RightFoot  20.1455 2.06217 -11.6233
RightToes  -1.27222e-014 -6.36111e-015 6.36111e-015
Spine  -35.465 -25.6593 -16.8124
Spine1  3.26658 -17.2884 50.0468
HEad  2.38446 -32.6932 -11.5695
LeftShoulder1  6.36111e-015 -1.33558e-015 6.49777e-015
LeftArm  27.3622 -21.2123 -49.2747
LeftForeArm  -37.2412 -48.0065 23.3403
LeftHand  -0.439956 -0.0352158 -5.13835
RightShoulder  -4.77083e-015 -6.36111e-015 -3.18055e-015
RightArm  74.1795 -44.6383 -28.9017
RightForeArm  -15.4426 -10.1356 -8.10924
RightHand  0.35861 1.03711 -4.41943
LeftUpLeg  45.8787 27.6857 18.56
LeftLeg  -16.8255 -8.45562 -0.963111
LeftFoot  12.1462 4.04083 -9.79033
LeftToes  1.27222e-014 1.09105e-011 6.96064e-012
27
root  -0.23102 40.2247 -1.15764 -177.948 -27.8789 174.454
RightUpLeg  -1.12009 19.6789 7.52873
RightLeg  -93.5368 -12.0311 3.07716
RightFoot  19.8906 3.86628 -14.3334
RightToes  -1.27222e-014 -6.36111e-015 6.36111e-015
Spine  -36.2 -26.162 -15.5409
Spine1  2.29353 -18.2264 51.3016
HEad  2.68063 -31.5285 -12.1101
LeftShoulder1  6.36111e-015 -1.33558e-015 6.49777e-015
LeftArm  25.4503 -26.2342 -49.2499
LeftForeArm  -41.3043 -48.5154 26.1444
LeftHand  -0.36554 0.0503262 -4.59061
RightShoulder  -4.77083e-015 -6.36111e-015 -3.18055e-015
RightArm  79.8323 -42.3715 -34.9574
RightForeArm  -17.7395 -8.87378 -9.08497
RightHand  0.565103 0.654702 -5.41755
LeftUpLeg  49.4136 28.3816 20.6272
LeftLeg  -19.4669 -12.2617 -0.257386
LeftFoot  9.7853 3.75259 -9.63097
LeftToes  1.27222e-014 1.09105e-011 6.96064e-012
28
root  -0.526738 39.5956 -1.67468 -178.459 -29.8791 174.665
RightUpLeg  -1.47186 19.4319 6.24088
RightLeg  -100.644 -11.3623 2.1004
RightFoot  18.3 5.05483 -15.9113
RightToes  -1.27222e-014 -6.36111e-015 6.36111e-015
Spine  -36.3649 -27.1291 -14.5859
Spine1  1.07213 -19.5177 53.4089
HEad  2.41657 -30.2374 -13.1361
LeftShoulder1  6.36111e-015 -1.33558e-015 6.49777e-015
LeftArm  22.0293 -32.2129 -48.2238
LeftForeArm  -44.7801 -49.0361 28.8323
LeftHand  -0.15734 0.520357 -4.06687
RightShoulder  -4.77083e-015 -6.36111e-015 -3.18055e-015
RightArm  84.301 -39.4946 -39.0611
RightForeArm  -19.6395 -7.21958 -10.2151
RightHand  1.03696 -0.286464 -7.37424
LeftUpLeg  51.9451 27.23 20.3124
LeftLeg  -20.7059 -13.2517 -0.17927
LeftFoot  5.35573 2.69444 -7.76207
LeftToes  1.27222e-014 1.09105e-011 6.96064e-012
29
root  -0.7919 38.9672 -2.27732 -179.347 -31.6415 174.118
RightUpLeg  -1.66312 17.3664 4.48371
RightLeg  -104.202 -11.6605 0.510075
RightFoot  19.237 5.29292 -16.4412
RightToes  -1.27222e-014 -6.36111e-015 6.36111e-015
Spine  -35.8402 -28.282 -14.8706
Spine1  0.802475 -20.3956 55.8199
HEad  1.20099 -29.2928 -13.9486
LeftShoulder1  6.36111e-015 -1.33558e-015 6.49777e-015
LeftArm  17.7369 -38.8387 -46.8792
LeftForeArm  -45.2719 -49.6891 30.0241
LeftHand  0.184241 1.30147 -3.35431
RightShoulder  -4.77083e-015 -6.36111e-015 -3.18055e-015
RightArm  86.9011 -37.1655 -41.5374
RightForeArm  -19.9468 -6.03431 -10.8522
RightHand  1.62173 -1.32426 -9.695
LeftUpLeg  54.9631 26.3352 19.2937
LeftLeg  -21.0367 -12.5284 -0.219857
LeftFoot  -0.503727 1.70075 -5.7808
LeftToes  1.27222e-014 1.09105e-011 6.96064e-012
30
root  -1.04304 38.5862 -3.04218 179.786 -31.6364 172.78
RightUpLeg  -1.84805 16.0926 3.14741
RightLeg  -103.395 -11.4785 1.43376
RightFoot  22.8446 6.32711 -18.5036
RightToes  -1.27222e-014 -6.36111e-015 6.36111e-015
Spine  -35.7197 -28.4719 -15.2843
Spine1  1.80979 -20.3866 56.718
HEad  0.349987 -28.8395 -14.0778
LeftShoulder1  6.36111e-015 -1.33558e-015 6.49777e-015
LeftArm  15.2254 -44.5794 -47.1843
LeftForeArm  -41.68 -50.5922 28.9513
LeftHand  0.428457 1.91019 -3.0887
RightShoulder  -4.77083e-015 -6.36111e-015 -3.18055e-015
RightArm  87.5423 -36.787 -42.8505
RightForeArm  -18.5121 -7.12257 -10.0268
RightHand  2.01049 -2.04511 -11.0137
LeftUpLeg  57.8133 26.6811 19.4261
LeftLeg  -19.4879 -12.1624 -0.143834
LeftFoot  -3.56944 1.79885 -6.74776
LeftToes  1.27222e-014 1.09105e-011 6.96064e-012
31
root  -1.3097 38.4688 -4.00642 178.963 -30.4576 171.917
RightUpLeg  -1.67811 15.9999 3.19156
RightLeg  -99.7992 -11.4328 4.24581
RightFoot  24.6527 8.16211 -21.333
RightToes  -1.27222e-014 -6.36111e-015 6.36111e-015
Spine  -36.3134 -27.4647 -14.0433
Spine1  2.32675 -20.0841 55.8438
HEad  1.88113 -27.9913 -14.8228
LeftShoulder1  6.36111e-015 -1.33558e-015 6.49777e-015
LeftArm  16.5813 -47.3201 -50.6012
LeftForeArm  -35.3185 -51.3043 25.8257
LeftHand  0.297661 1.78208 -3.93374
RightShoulder  -4.77083e-015 -6.36111e-015 -3.18055e-015
RightArm  86.7351 -38.6481 -42.9905
RightForeArm  -16.274 -11.2659 -7.82081
RightHand  1.93463 -2.15737 -10.3238
LeftUpLeg  57.1371 26.7438 20.3544
LeftLeg  -11.4682 -11.9086 -0.750772
LeftFoot  -0.393201 3.267 -11.1074
LeftToes  1.27222e-014 1.09105e-011 6.96064e-012
32
root  -1.58163 38.3927 -5.09144 177.856 -30.3146 172.574
RightUpLeg  -0.968678 16.5996 4.61112
RightLeg  -94.9814 -12.2315 7.66548
RightFoot  21.924 8.39344 -21.512
RightToes  -1.27222e-014 -6.36111e-015 6.36111e-015
Spine  -36.4614 -26.2939 -11.2507
Spine1  0.666472 -20.4306 55.7619
HEad  5.74979 -25.7975 -17.4922
LeftShoulder1  6.36111e-015 -1.33558e-015 6.49777e-015
LeftArm  20.5302 -46.8508 -55.8928
LeftForeArm  -28.5157 -50.8164 21.3062
LeftHand  -0.0619227 1.10094 -5.22694
RightShoulder  -4.77083e-015 -6.36111e-015 -3.18055e-015
RightArm  85.4997 -40.6882 -44.455
RightForeArm  -12.9623 -14.5979 -4.62174
RightHand  1.37919 -1.34153 -7.99651
LeftUpLeg  51.3184 24.6181 20.7079
LeftLeg  3.15059 -12.1956 -1.97057
LeftFoot  10.7175 5.54029 -13.8451
LeftToes  1.27222e-014 1.09105e-011 6.96064e-012
33
root  -1.80045 37.9867 -6.13187 175.887 -32.3152 174.635
RightUpLeg  -0.661589 16.0004 6.65234
RightLeg  -88.3201 -14.3576 9.90701
RightFoot  17.6353 6.67784 -18.4379
RightToes  -1.27222e-014 -6.36111e-015 6.36111e-015
Spine  -35.0462 -25.6468 -8.00962
Spine1  -2.54579 -21.1455 59.2671
HEad  9.34604 -22.6453 -20.6912
LeftShoulder1  6.36111e-015 -1.33558e-015 6.49777e-015
LeftArm  25.5938 -46.4339 -61.5971
LeftForeArm  -23.2176 -48.7024 16.6594
LeftHand  -0.316139 0.556954 -6.02724
RightShoulder  -4.77083e-015 -6.36111e-015 -3.18055e-015
RightArm  85.3274 -38.7998 -56.0461
RightForeArm  -4.64198 -8.16537 1.2765
RightHand  0.559813 0.673627 -5.40888
LeftUpLeg  43.059 19.8778 19.7658
LeftLeg  18.3751 -11.6633 -3.45115
LeftFoot  21.1235 6.46745 -12.7732
LeftToes  1.27222e-014 1.09105e-011 6.96064e-012
